# xmcd database file
#
# Track frame offsets:
# 182
# 12492
# 27097
# 39012
# 61800
# 83185
# 104345
# 123460
# 134335
# 155722
#
# Disc length: 2231 seconds
#
# Revision: 2
# Processed by: cddbd v1.4PL0 Copyright (c) Steve Scherf et al.
# Submitted via: CD-Runner 2003.04
#
DISCID=7908b50a
DTITLE=Lightnin' Hopkins - Shaggy Dog
DYEAR=1997
DGENRE=Blues
TTITLE0=Shaggy Dog
TTITLE1=Santa Fe Blues
TTITLE2=Shining Moon
TTITLE3=I'll Be Gone
TTITLE4=Shake It Baby
TTITLE5=Goin' Back Home
TTITLE6=Good Times
TTITLE7=What'd I Say
TTITLE8=Don't Wake Me
TTITLE9=Talk of the Town
EXTD=
EXTT0=
EXTT1=
EXTT2=
EXTT3=
EXTT4=
EXTT5=
EXTT6=
EXTT7=
EXTT8=
EXTT9=
PLAYORDER=
